<?xml version="1.0" encoding="UTF-8" standalone="no"?>
<svg
   xmlns:dc="http://purl.org/dc/elements/1.1/"
   xmlns:cc="http://creativecommons.org/ns#"
   xmlns:rdf="http://www.w3.org/1999/02/22-rdf-syntax-ns#"
   xmlns:svg="http://www.w3.org/2000/svg"
   xmlns="http://www.w3.org/2000/svg"
   version="1.1"
   width="156.262"
   id="svg1609"
   height="144.407">
  <title
     id="title4599">Warning sign</title>
  <metadata
     id="metadata2">
    <rdf:RDF>
      <cc:Work
         rdf:about="">
        <dc:title>Warning sign</dc:title>
        <dc:description />
        <dc:subject>
          <rdf:Bag>
            <rdf:li />
            <rdf:li>caution</rdf:li>
            <rdf:li>security</rdf:li>
            <rdf:li>warning</rdf:li>
            <rdf:li>signs_and_symbols</rdf:li>
            <rdf:li>sign</rdf:li>
          </rdf:Bag>
        </dc:subject>
        <dc:publisher>
          <cc:Agent
             rdf:about="http://www.openclipart.org">
            <dc:title>Thomas Weller</dc:title>
          </cc:Agent>
        </dc:publisher>
        <dc:creator>
          <cc:Agent>
            <dc:title>Thomas Weller</dc:title>
          </cc:Agent>
        </dc:creator>
        <dc:rights>
          <cc:Agent>
            <dc:title>Thomas Weller</dc:title>
          </cc:Agent>
        </dc:rights>
        <dc:date />
        <dc:format>image/svg+xml</dc:format>
        <dc:type
           rdf:resource="http://purl.org/dc/dcmitype/StillImage" />
        <cc:license
           rdf:resource="http://web.resource.org/cc/PublicDomain" />
        <dc:language>en</dc:language>
      </cc:Work>
      <cc:License
         rdf:about="http://web.resource.org/cc/PublicDomain">
        <cc:permits
           rdf:resource="http://web.resource.org/cc/Reproduction" />
        <cc:permits
           rdf:resource="http://web.resource.org/cc/Distribution" />
        <cc:permits
           rdf:resource="http://web.resource.org/cc/DerivativeWorks" />
      </cc:License>
    </rdf:RDF>
  </metadata>
  <defs
     id="defs1610">
    <marker
       viewBox="0 0 10 10"
       refY="5"
       refX="0"
       orient="auto"
       markerWidth="4"
       markerUnits="strokeWidth"
       markerHeight="3"
       id="ArrowEnd">
      <path
         id="path1612"
         d="M 0 0 L 10 5 L 0 10 z" />
    </marker>
    <marker
       viewBox="0 0 10 10"
       refY="5"
       refX="10"
       orient="auto"
       markerWidth="4"
       markerUnits="strokeWidth"
       markerHeight="3"
       id="ArrowStart">
      <path
         id="path1614"
         d="M 10 0 L 0 5 L 10 10 z" />
    </marker>
  </defs>
  <g
     transform="matrix(0.99073487,0,0,0.99073487,186.61494,2.4370252)"
     id="g4593">
    <path
       id="path4595"
       d="m -109.16602,7.2265625 c -0.13666,0.0017 -0.27279,0.017412 -0.40625,0.046875 -3.19494,0.029452 -6.17603,1.6944891 -7.78515,4.4824215 l -31.25,54.126953 -31.25,54.126958 h 0.002 c -3.41988,5.92217 1.01692,13.60908 7.85547,13.60937 h 62.5 62.501953 c 6.838552,-3.2e-4 11.277321,-7.68721 7.857422,-13.60937 l -31.25,-54.126958 -31.251955,-54.126953 c -1.46518,-2.5386342 -4.07917,-4.1634136 -6.97851,-4.4492184 -0.14501,-0.042788 -0.2944,-0.068998 -0.44532,-0.078125 h -0.004 c -0.0312,-0.00138 -0.0625,-0.00203 -0.0937,-0.00195 z"
       style="color:#000000;opacity:1;solid-color:#000000;fill:#000000;fill-opacity:1;stroke:none;" />
    <path
       style="color:#000000;opacity:1;solid-color:#000000;fill:#ffffff;fill-opacity:1;stroke:none;"
       d="m -109.16545,9.2265625 c -2.63992,-0.1247523 -5.13786,1.2403375 -6.45899,3.5292965 l -31.25,54.126953 -31.25,54.126958 c -2.67464,4.63164 0.77657,10.60914 6.125,10.60937 h 62.5 62.50196 c 5.34844,-2.5e-4 8.79965,-5.97774 6.125,-10.60937 l -31.25,-54.126958 -31.25196,-54.126953 c -1.20213,-2.082863 -3.38689,-3.4150037 -5.78906,-3.5292965 h -0.002 z"
       id="path4583" />
    <path
       style="color:#000000;opacity:1;solid-color:#000000;fill:#000000;fill-opacity:1;stroke:none;"
       d="m -109.25919,11.224609 c -1.89626,-0.08961 -3.68385,0.887082 -4.63282,2.53125 l -31.25,54.126953 -31.25,54.126958 c -1.95283,3.38168 0.48755,7.6092 4.39258,7.60937 h 62.5 62.50196 c 3.905026,-1.8e-4 6.345394,-4.2277 4.39257,-7.60937 l -31.25,-54.126958 -31.25195,-54.126953 c -0.86311,-1.495461 -2.42763,-2.44919 -4.15234,-2.53125 z"
       id="path4577" />
    <path
       style="opacity:1;fill:#ffcc00;fill-opacity:1;stroke:none;"
       id="path4573"
       d="m -46.997381,124.54655 -62.501079,0 -62.50108,0 31.25054,-54.127524 31.25054,-54.127522 31.25054,54.127521 z" />
    <g
       id="g858"
       transform="translate(-188.06236)">
      <circle
         r="8.8173475"
         cy="111.11701"
         cx="78.564362"
         id="path846"
         style="opacity:1;fill:#000000;fill-opacity:1;stroke:none;" />
      <path
         id="circle848"
         d="m 78.564453,42.955078 c -4.869714,-5.59e-4 -8.817839,3.946692 -8.818359,8.816406 3.15625,37.460938 0,0 3.15625,37.460938 8.93e-4,3.126411 2.535698,5.660342 5.662109,5.660156 3.126411,1.86e-4 5.661216,-2.533745 5.662109,-5.660156 3.154297,-37.460938 0,0 3.154297,-37.460938 -5.2e-4,-4.868951 -3.947455,-8.815886 -8.816406,-8.816406 z"
         style="opacity:1;fill:#000000;fill-opacity:1;stroke:none;" />
    </g>
  </g>
</svg>
