<?xml version="1.0" ?><!DOCTYPE svg  PUBLIC '-//W3C//DTD SVG 1.1//EN'  'http://www.w3.org/Graphics/SVG/1.1/DTD/svg11.dtd'><svg enable-background="new 0 0 27.334 27.333" height="27.333px" id="Capa_1" version="1.1" viewBox="0 0 27.334 27.333" width="27.334px" xml:space="preserve" xmlns="http://www.w3.org/2000/svg" xmlns:xlink="http://www.w3.org/1999/xlink"><path d="M20.872,13.666l5.152-5.152c1.744-1.744,1.744-4.583,0.002-6.329l-0.879-0.877C24.308,0.465,23.183,0,21.983,0  c-1.197,0-2.321,0.464-3.164,1.309l-5.152,5.152L8.514,1.308C7.672,0.465,6.548,0,5.351,0C4.152,0,3.027,0.465,2.184,1.31  L1.31,2.183c-1.744,1.748-1.744,4.587-0.002,6.33l5.153,5.153l-5.152,5.153c-1.744,1.745-1.744,4.584-0.001,6.328l0.877,0.877  c0.844,0.844,1.968,1.309,3.165,1.309c1.198,0,2.322-0.465,3.165-1.31l5.152-5.151l5.152,5.152c0.843,0.844,1.967,1.309,3.164,1.309  s2.322-0.465,3.166-1.309l0.875-0.876c1.744-1.745,1.744-4.584,0.002-6.328L20.872,13.666z M24.61,23.734l-0.875,0.876  c-0.481,0.48-1.116,0.723-1.752,0.723c-0.635,0-1.269-0.24-1.75-0.723l-6.566-6.566L7.1,24.61c-0.481,0.48-1.115,0.723-1.75,0.723  c-0.635,0-1.27-0.24-1.751-0.723l-0.876-0.876c-0.962-0.963-0.962-2.538,0-3.501l6.566-6.567L2.723,7.1  c-0.962-0.963-0.962-2.538,0-3.502l0.876-0.875C4.08,2.24,4.715,2,5.35,2C5.985,2,6.62,2.24,7.1,2.722l6.567,6.567l6.566-6.567  C20.715,2.24,21.351,2,21.983,2c0.636,0,1.271,0.24,1.752,0.723l0.875,0.875c0.963,0.964,0.963,2.539,0,3.502l-6.566,6.566  l6.566,6.567C25.573,21.196,25.573,22.771,24.61,23.734z"/></svg>
