<?xml version="1.0" encoding="utf-8"?>
<svg fill="#000000" width="1792" height="1792" viewBox="0 0 1792 1792" xmlns="http://www.w3.org/2000/svg">
     <path d="M1024 1375v-190c0-18-14-33-32-33H800c-18 0-32 15-32 33v190c0 18 14 33 32 33h192c18 0 32-15 32-33zm-2-374l18-459c0-6-3-14-10-19-6-5-15-11-24-11H786c-9 0-18 6-24 11-7 5-10 15-10 21l17 457c0 13 15 23 34 23h185c18 0 33-10 34-23zm-14-934l768 1408c22 39 21 87-2 126s-65 63-110 63H128c-45 0-87-24-110-63s-24-87-2-126L784 67c22-41 65-67 112-67s90 26 112 67z"/>
</svg>
