<?xml version="1.0" encoding="utf-8"?>
<svg version="1.1" id="Layer_1" xmlns="http://www.w3.org/2000/svg" xmlns:xlink="http://www.w3.org/1999/xlink" x="0px" y="0px" fill="#000000"
	 viewBox="0 0 1536 1536" style="enable-background:new 0 0 1536 1536;" xml:space="preserve">
<path d="M483.4,1088l65.1-120.3C451.6,896,394,780.8,394,658.8c0-67.4,17.5-134,50.9-192C314.7,535,206.2,642.6,126.9,768
	C213.7,905.4,336.5,1020.6,483.4,1088z M808.1,440.3c0-22.2-18.4-41-40.1-41c-139.4,0-253.8,116.9-253.8,259.4
	c0,22.2,18.4,41,40.1,41s40.1-18.8,40.1-41c0-98.1,78.5-177.5,173.6-177.5C789.7,481.3,808.1,462.5,808.1,440.3z M1111.1,277.3
	c0,1.7,0,6-0.8,7.7c-176.1,321.7-350.6,645.1-526.7,966.8l-40.9,75.9c-5,8.5-14.2,13.7-23.4,13.7c-15,0-94.3-49.5-111.9-59.7
	c-8.3-5.1-13.4-13.7-13.4-23.9c0-13.7,28.4-59.7,36.7-74.2c-161.9-75.1-298-203.1-394-356.7c-10.9-17.1-16.7-37.5-16.7-58.9
	c0-20.5,5.8-41.8,16.7-58.9C202.1,449.7,460,276.5,768,276.5c50.1,0,101,5.1,150.2,14.5l45.1-82.8c5-8.5,13.4-13.7,23.4-13.7
	c15,0,93.5,49.5,111,59.7C1106.1,259.4,1111.1,267.9,1111.1,277.3z M1142,658.8c0,158.7-96,300.4-240.4,356.7l233.7-428.4
	C1139.4,611,1142,634.9,1142,658.8z M1515.9,768c0,22.2-5.8,40.1-16.7,58.9c-25.9,43.5-58.4,85.3-91,123.7
	c-163.6,192-389,308.9-640.2,308.9l61.8-112.6c242.9-21.3,449.1-172.4,579.3-378.9c-61.8-98.1-141.1-184.3-235.4-250.9l52.6-95.6
	c103.5,70.8,207.8,177.5,273,287.6C1510.1,727.9,1515.9,745.8,1515.9,768z"/>
</svg>
