<?xml version="1.0" encoding="utf-8"?>
<svg version="1.1" id="Layer_1" xmlns="http://www.w3.org/2000/svg" xmlns:xlink="http://www.w3.org/1999/xlink" x="0px" y="0px" fill="#000000"
	 viewBox="0 0 1536 1536" style="enable-background:new 0 0 1536 1536;" xml:space="preserve">
<path d="M1404.2,768c-78.7-121.8-186.4-226.2-315.6-292.4c33.1,56.3,50.5,120.9,50.5,186.4c0,204.6-166.5,371.1-371.1,371.1
	S396.9,866.6,396.9,662c0-65.4,17.4-130.1,50.5-186.4C318.2,541.8,210.5,646.2,131.8,768c141.7,218.7,370.3,371.1,636.2,371.1
	S1262.6,986.7,1404.2,768z M807.8,449.9c0-21.5-18.2-39.8-39.8-39.8c-138.3,0-251.8,113.5-251.8,251.8c0,21.5,18.2,39.8,39.8,39.8
	c21.5,0,39.8-18.2,39.8-39.8c0-94.4,77.9-172.3,172.3-172.3C789.5,489.7,807.8,471.4,807.8,449.9z M1510.3,768
	c0,20.7-6.6,39.8-16.6,57.2c-152.4,251-431.6,420-725.7,420s-573.3-169.8-725.7-420c-9.9-17.4-16.6-36.5-16.6-57.2
	s6.6-39.8,16.6-57.2c152.4-250.2,431.6-420,725.7-420s573.3,169.8,725.7,420C1503.6,728.2,1510.3,747.3,1510.3,768z"/>
</svg>
