<svg width="128" height="128" viewBox="0 0 128 128" xmlns="http://www.w3.org/2000/svg">
    <path d="M83.9 89.55a4.35 4.35 0 1 0 8.7 0 4.35 4.35 0 0 0-8.7 0Z"/>
    <path d="M108.662 93.919a4.338 4.338 0 1 0 0-8.676 4.338 4.338 0 0 0 0 8.676Z"/>
    <path d="M1.288 84.818c0-9.344 7.019-16.918 15.678-16.918h94.068c8.659 0 15.678 7.574 15.678 16.918v8.459c0 9.344-7.019 16.918-15.678 16.918H16.966c-8.659 0-15.678-7.574-15.678-16.918v-8.459Zm80.197 4.763a6.821 6.821 0 1 0 13.642 0 6.821 6.821 0 0 0-13.642 0Zm27.177 6.821a6.821 6.821 0 1 0 0-13.642 6.821 6.821 0 0 0 0 13.642Z"/>
    <path d="M8.421 61.167a21.931 21.931 0 0 1 8.545-1.725h94.068c3.01 0 5.895.609 8.545 1.725l-14.635-28.946c-2.06-4.078-6.02-6.615-10.324-6.615H33.381c-4.304 0-8.264 2.537-10.324 6.615L8.421 61.167Z"/>
</svg>
