<svg width="599" height="522" viewBox="0 0 599 522" xmlns="http://www.w3.org/2000/svg">
    <path fill-rule="evenodd" d="M397 333c22.644 0 41 18.356 41 41s-18.356 41-41 41-41-18.356-41-41 18.356-41 41-41Zm97 0c22.644 0 41 18.356 41 41s-18.356 41-41 41-41-18.356-41-41 18.356-41 41-41ZM0 326s2.237-54.047 56-59h488s40.342.719 55 50v118s-9.373 45.394-58 48H58s-51.967-.664-58-58v-99Zm70-162 45-67a59.044 59.044 0 0 1 48-28h275s35.25 2.327 48 30l36 54 60 90s4.383 22.508-20 13c0 0-16.971-4.54-21-3H49s-6.738.5-9 3c0 0-24.886 11.173-22-13Z"/>
</svg>
