<?xml version="1.0" encoding="UTF-8" standalone="no"?>
<svg viewBox="0 0 64 64" version="1.1" id="svg6" sodipodi:docname="help-about.svg" width="64" height="64" inkscape:version="1.1.1 (3bf5ae0d25, 2021-09-20)" xmlns:inkscape="http://www.inkscape.org/namespaces/inkscape" xmlns:sodipodi="http://sodipodi.sourceforge.net/DTD/sodipodi-0.dtd" xmlns="http://www.w3.org/2000/svg" xmlns:svg="http://www.w3.org/2000/svg">
    <sodipodi:namedview id="namedview8" pagecolor="#ffffff" bordercolor="#666666" borderopacity="1.0" inkscape:pageshadow="2" inkscape:pageopacity="0.0" inkscape:pagecheckerboard="0" showgrid="false" inkscape:zoom="13.068182" inkscape:cx="52.37913" inkscape:cy="41.972174" inkscape:window-width="3840" inkscape:window-height="2107" inkscape:window-x="0" inkscape:window-y="0" inkscape:window-maximized="1" inkscape:current-layer="svg6" />
    <defs id="defs3051">
        <style type="text/css" id="current-color-scheme">
      .ColorScheme-Text {
      color:#000000;
      }
    </style>
    </defs>
    <path style="fill:currentColor;fill-opacity:1;stroke:none;stroke-width:2.90909" d="m 31.999999,8.7272725 c -12.893091,0 -23.2727265,10.3796355 -23.2727265,23.2727265 0,12.893091 10.3796355,23.272729 23.2727265,23.272729 C 44.89309,55.272728 55.272728,44.89309 55.272728,32 55.272727,19.106908 44.89309,8.7272725 31.999999,8.7272725 Z m 0,2.9090905 c 11.281455,0 20.363637,9.082182 20.363637,20.363636 0,11.281455 -9.082182,20.363637 -20.363637,20.363637 -11.281454,0 -20.363636,-9.082182 -20.363636,-20.363637 0,-11.281454 9.082182,-20.363636 20.363636,-20.363636 z m -2.909091,5.818182 v 5.818182 h 5.818182 v -5.818182 z m 0,8.727272 V 46.545454 H 34.90909 V 26.181817 Z" class="ColorScheme-Text" id="path4" />
</svg>
