<svg xmlns="http://www.w3.org/2000/svg" xml:space="preserve" height="128px" viewBox="0 0 128 128" width="128px"><path fill="#888" fill-rule="evenodd" d="M1.288 84.818c0-9.344 7.019-16.918 15.678-16.918h94.068c8.659 0 15.678 7.574 15.678 16.918v8.459c0 9.344-7.019 16.918-15.678 16.918H16.966c-8.659 0-15.678-7.574-15.678-16.918v-8.459z" clip-rule="evenodd"/><circle cx="88.306" cy="89.581" r="6.821" fill="#E65100"/><circle cx="108.662" cy="89.581" r="6.821" fill="#FF9800"/><path fill="#888" d="M8.421 61.167a21.931 21.931 0 0 1 8.545-1.725h94.068c3.01 0 5.895.609 8.545 1.725l-14.635-28.946c-2.06-4.078-6.02-6.615-10.324-6.615H33.381c-4.304 0-8.264 2.537-10.324 6.615L8.421 61.167z"/></svg>
