<svg id="Layer_1" data-name="Layer 1" xmlns="http://www.w3.org/2000/svg" viewBox="0 0 576 384"><defs><style>.cls-1{fill:#515151;}.cls-2{fill:#e65100;}.cls-3{fill:#ff9800;}</style></defs><title>vorta</title><path class="cls-1" d="M586.52,335.52v96a48,48,0,0,1-48,48h-480a48,48,0,0,1-48-48v-96a48,48,0,0,1,48-48h480A48,48,0,0,1,586.52,335.52Zm-48-80a79.47,79.47,0,0,1,30.77,6.16L472.77,116.89a48,48,0,0,0-39.94-21.37H164.2a48,48,0,0,0-39.93,21.37L27.74,261.68a79.52,79.52,0,0,1,30.78-6.16Zm-48,96a32,32,0,1,0,32,32A32,32,0,0,0,490.52,351.52Zm-96,0a32,32,0,1,0,32,32A32,32,0,0,0,394.52,351.52Z" transform="translate(-10.52 -95.52)"/><circle class="cls-2" cx="384.5" cy="288" r="32"/><circle class="cls-3" cx="480" cy="288" r="32"/></svg>