<?xml version="1.0" encoding="UTF-8" standalone="no"?>
<svg
   xmlns:dc="http://purl.org/dc/elements/1.1/"
   xmlns:cc="http://creativecommons.org/ns#"
   xmlns:rdf="http://www.w3.org/1999/02/22-rdf-syntax-ns#"
   xmlns:svg="http://www.w3.org/2000/svg"
   xmlns="http://www.w3.org/2000/svg"
   xmlns:sodipodi="http://sodipodi.sourceforge.net/DTD/sodipodi-0.dtd"
   xmlns:inkscape="http://www.inkscape.org/namespaces/inkscape"
   inkscape:version="1.0 (4035a4fb49, 2020-05-01)"
   sodipodi:docname="icon-symbolic.svg"
   id="svg4"
   version="1.1"
   width="16px"
   viewBox="0 0 16 16"
   height="16px">
  <metadata
     id="metadata10">
    <rdf:RDF>
      <cc:Work
         rdf:about="">
        <dc:format>image/svg+xml</dc:format>
        <dc:type
           rdf:resource="http://purl.org/dc/dcmitype/StillImage" />
      </cc:Work>
    </rdf:RDF>
  </metadata>
  <defs
     id="defs8" />
  <sodipodi:namedview
     inkscape:current-layer="svg4"
     inkscape:window-maximized="1"
     inkscape:window-y="27"
     inkscape:window-x="0"
     inkscape:cy="8"
     inkscape:cx="8"
     inkscape:zoom="42.25"
     showgrid="false"
     id="namedview6"
     inkscape:window-height="836"
     inkscape:window-width="1600"
     inkscape:pageshadow="2"
     inkscape:pageopacity="0"
     guidetolerance="10"
     gridtolerance="10"
     objecttolerance="10"
     borderopacity="1"
     bordercolor="#666666"
     pagecolor="#ffffff" />
  <path
     id="path2"
     fill="#888888"
     d="m 15.441406 9.246094 v 2.476562 c 0 0.683594 -0.554687 1.238282 -1.238281 1.238282 h -12.386719 c -0.683594 0 -1.238281 -0.554688 -1.238281 -1.238282 v -2.476562 c 0 -0.683594 0.554687 -1.238282 1.238281 -1.238282 h 12.386719 c 0.683594 0 1.238281 0.554688 1.238281 1.238282 z m -1.238281 -2.066406 c 0.273437 0 0.542969 0.054687 0.792969 0.160156 l -2.488282 -3.734375 c -0.230468 -0.347657 -0.617187 -0.554688 -1.03125 -0.554688 h -6.933593 c -0.410157 0 -0.796875 0.207031 -1.027344 0.554688 l -2.492187 3.734375 c 0.25 -0.105469 0.519531 -0.160156 0.792968 -0.160156 z m -1.238281 2.476562 c -0.457032 0 -0.828125 0.371094 -0.828125 0.828125 s 0.371093 0.824219 0.828125 0.824219 c 0.457031 0 0.824218 -0.367188 0.824218 -0.824219 s -0.367187 -0.828125 -0.824218 -0.828125 z m -2.476563 0 c -0.457031 0 -0.828125 0.371094 -0.828125 0.828125 s 0.371094 0.824219 0.828125 0.824219 s 0.824219 -0.367188 0.824219 -0.824219 s -0.367188 -0.828125 -0.824219 -0.828125 z m 0 0" />
</svg>
